{"title":"Ong Bak 2[2008][BRRip][720p][Hindi]-MEGUIL &amp; HDKING","uid":6538260,"size":660735872,"categoryP":"video","categoryS":"hd___movies","magnet":"?xt=urn:btih:b2c49d53102e07638fa51a80fc26920ca7421a96&amp;dn=Ong+Bak+2%5B2008%5D%5BBRRip%5D%5B720p%5D%5BHindi%5D-MEGUIL+%26+HDKING&amp;tr=udp%3A%2F%2Ftracker.openbittorrent.com%3A80&amp;tr=udp%3A%2F%2Fopen.demonii.com%3A1337&amp;tr=udp%3A%2F%2Ftracker.coppersurfer.tk%3A6969&amp;tr=udp%3A%2F%2Fexodus.desync.com%3A6969","seeders":1,"leechers":0,"uploader":"meguil","files":10,"time":1310584436,"description":"                         -=[HD DESI ROCKERS RELEASE]=-\n\n\nOng Bak 2[2008][BRRip][720p][Hindi]-MEGUIL &amp; HDKING\n\n\nIMDB &lt;a href=&quot;\nhttp://www.imdb.com/title/tt0785035/&quot; rel=&quot;nofollow&quot; target=&quot;_NEW&quot;&gt;\nhttp://www.imdb.com/title/tt0785035/&lt;/a&gt;\n\nPLOT\nDirectors: Tony Jaa, Panna Rittikrai\nWriter: Panna Rittikrai\nStars: Tony Jaa, Sarunyu Wongkrachang and Sorapong Chatree\nTaglines: Warrior. Conqueror. Legend.\nGenres: Action\n\nStoryline\nIn 1431, the Kingdom of Ayutthayan conquers the territory of Sukhothai expanding their lands to the East. The noble Lord Siha Decho is betrayed by his Captain, Rajasena, and is murdered together with his wife. However their son Tien is saved by one loyal soldier and left alone in the woods...\n\n\nCAST\nTony Jaa\t \t ...\tTien\nSarunyu Wongkrachang\t ...\tRajasena Lord\nSorapong Chatree\t ...\tChernang\nPrimorata Dejudom\t ...\tPim\nNirut Sirichanya\t ...\tMaster Bua (as Nirut Sirijanya)\nPetchtai Wongkamlao\t ...\tMhen\nSantisuk Promsiri\t ...\tNobleman Siha Decho\nPatthama Panthong\t ...\tLady Plai\nSupakorn Kitsuwon\t ...\tMaster Armer\nNatdanai Kongthong\t ...\tYoung Tien\nPrarinya Karmkeaw\t ...\tYoung Pim\n\n\nMOVIE INFO\nGeneral\nFormat                           : Matroska\nFile size                        : 624 MiB\nDuration                         : 1h 33mn\nOverall bit rate                 : 932 Kbps\nMovie name                       : Ong Bak 2[2008][BRRip][720p][Hindi]-MEGUIL&amp; HDKING   -=[HD DESI ROCKERS RELEASE]=-\nEncoded date                     : UTC 2011-07-14 03:50:19\n\nVideo\nID                               : 1\nFormat                           : AVC\nFormat/Info                      : Advanced Video Codec\nFormat profile                   : &lt;a class=&quot;__cf_email__&quot; href=&quot;/cdn-cgi/l/email-protection&quot; data-cfemail=&quot;7c34151b143c304f524d&quot;&gt;[email&amp;#160;protected]&lt;/a&gt;&lt;script cf-hash='f9e31' type=&quot;text/javascript&quot;&gt;\n/* &lt;![CDATA[ */!function(){try{var t=&quot;currentScript&quot;in document?document.currentScript:function(){for(var t=document.getElementsByTagName(&quot;script&quot;),e=t.length;e--;)if(t[e].getAttribute(&quot;cf-hash&quot;))return t[e]}();if(t&amp;&amp;t.previousSibling){var e,r,n,i,c=t.previousSibling,a=c.getAttribute(&quot;data-cfemail&quot;);if(a){for(e=&quot;&quot;,r=parseInt(a.substr(0,2),16),n=2;a.length-n;n+=2)i=parseInt(a.substr(n,2),16)^r,e+=String.fromCharCode(i);e=document.createTextNode(e),c.parentNode.replaceChild(e,c)}}}catch(u){}}();/* ]]&gt; */&lt;/script&gt;\nFormat settings, CABAC           : Yes\nFormat settings, ReFrames        : 4 frames\nMuxing mode                      : Header stripping\nCodec ID                         : V_MPEG4/ISO/AVC\nDuration                         : 1h 33mn\nBit rate                         : 819 Kbps\nWidth                            : 1 280 pixels\nHeight                           : 544 pixels\nDisplay aspect ratio             : 2.35:1\nFrame rate mode                  : Variable\nFrame rate                       : 25.000 fps\nColor space                      : YUV\nChroma subsampling               : 4:2:0\nBit depth                        : 8 bits\nScan type                        : Progressive\nBits/(Pixel*Frame)               : 0.047\nStream size                      : 526 MiB (84%)\n\nAudio\nID                               : 2\nFormat                           : MPEG Audio\nFormat version                   : Version 1\nFormat profile                   : Layer 3\nMode                             : Joint stereo\nMode extension                   : MS Stereo\nMuxing mode                      : Header stripping\nCodec ID                         : A_MPEG/L3\nCodec ID/Hint                    : MP3\nDuration                         : 1h 33mn\nBit rate mode                    : Constant\nBit rate                         : 128 Kbps\nChannel(s)                       : 2 channels\nSampling rate                    : 44.1 KHz\nCompression mode                 : Lossy\nStream size                      : 85.8 MiB (14%)\nLanguage                         : Hindi\n\n\nSCREENS  &lt;a href=&quot;\nhttp://img94.imageshack.us/img94/3151/vlcsnap2011071321h35m14.jpg&quot; rel=&quot;nofollow&quot; target=&quot;_NEW&quot;&gt;\nhttp://img94.imageshack.us/img94/3151/vlcsnap2011071321h35m14.jpg&lt;/a&gt; &lt;a href=&quot;\nhttp://img189.imageshack.us/img189/9352/vlcsnap2011071321h35m25.jpg&quot; rel=&quot;nofollow&quot; target=&quot;_NEW&quot;&gt;\nhttp://img189.imageshack.us/img189/9352/vlcsnap2011071321h35m25.jpg&lt;/a&gt; &lt;a href=&quot;\nhttp://img148.imageshack.us/img148/12/vlcsnap2011071321h35m29.jpg&quot; rel=&quot;nofollow&quot; target=&quot;_NEW&quot;&gt;\nhttp://img148.imageshack.us/img148/12/vlcsnap2011071321h35m29.jpg&lt;/a&gt; &lt;a href=&quot;\nhttp://img810.imageshack.us/img810/6645/vlcsnap2011071321h35m37.jpg&quot; rel=&quot;nofollow&quot; target=&quot;_NEW&quot;&gt;\nhttp://img810.imageshack.us/img810/6645/vlcsnap2011071321h35m37.jpg&lt;/a&gt; &lt;a href=&quot;\nhttp://img687.imageshack.us/img687/3901/vlcsnap2011071321h36m06.jpg&quot; rel=&quot;nofollow&quot; target=&quot;_NEW&quot;&gt;\nhttp://img687.imageshack.us/img687/3901/vlcsnap2011071321h36m06.jpg&lt;/a&gt;  ","torrent":{"xt":"urn:btih:b2c49d53102e07638fa51a80fc26920ca7421a96","amp;dn":"Ong+Bak+2%5B2008%5D%5BBRRip%5D%5B720p%5D%5BHindi%5D-MEGUIL+%26+HDKING","amp;tr":["udp%3A%2F%2Ftracker.openbittorrent.com%3A80","udp%3A%2F%2Fopen.demonii.com%3A1337","udp%3A%2F%2Ftracker.coppersurfer.tk%3A6969","udp%3A%2F%2Fexodus.desync.com%3A6969"],"infoHash":"b2c49d53102e07638fa51a80fc26920ca7421a96","infoHashBuffer":{"type":"Buffer","data":[178,196,157,83,16,46,7,99,143,165,26,128,252,38,146,12,167,66,26,150]},"announce":[],"urlList":[]}}